<?xml version="1.0" standalone="no"?><!DOCTYPE svg PUBLIC "-//W3C//DTD SVG 1.1//EN" "http://www.w3.org/Graphics/SVG/1.1/DTD/svg11.dtd"><svg t="1628081041997" class="icon" viewBox="0 0 1024 1024" version="1.1" xmlns="http://www.w3.org/2000/svg" p-id="2118" xmlns:xlink="http://www.w3.org/1999/xlink" width="200" height="200"><defs><style type="text/css"></style></defs><path d="M129.60375088 838.8035976l178.21131662-11.62667973c13.6012821-0.88373813 26.42929335-6.68326959 36.06756229-16.32153853l489.28713724-489.28713724c21.92775227-21.92775227 21.92775227-57.51202029 0-79.45358096l-121.54160925-121.52780084c-21.92775227-21.92775227-57.51202029-21.92775227-79.43977253 0L142.97029004 609.8049555a56.11046685 56.11046685 0 0 0-16.34915534 36.37134727l-10.70151639 179.01220431c-0.45567747 7.7327086 5.96523235 14.12600162 13.68413257 13.61509052z m502.58463437-633.80593778c21.94156068-21.92775227 57.51202029-21.92775227 79.43977253 0l37.10319292 37.10319291c21.92775227 21.92775227 21.92775227 57.51202029 0 79.43977254L346.85143757 723.43434683l-116.54296547-116.54296546 401.87991315-401.89372155z m-452.6396218 556.18887511l5.30242875-88.82949015a56.13117947 56.13117947 0 0 1 8.53359628-26.55356903l114.59597991 114.60978831a56.22231495 56.22231495 0 0 1-26.48452699 8.65787197l-88.2633454 5.75810622c-7.7327086 0.4971027-14.15361843-5.90999873-13.68413255-13.64270732zM886.01454533 864.6391294H137.98545467c-15.25829109 0-27.61681646 12.35852537-27.61681647 27.61681646s12.35852537 27.61681646 27.61681647 27.61681645h748.02909066c15.25829109 0 27.61681646-12.35852537 27.61681647-27.61681645s-12.37233377-27.61681646-27.61681647-27.61681646z" fill="#1296db" p-id="2119"></path></svg>